<svg xmlns="http://www.w3.org/2000/svg" xmlns:svg="http://www.w3.org/2000/svg" id="svg11300" width="48" height="48" version="1.0" style="display:inline;enable-background:new"><metadata id="metadata4"/><g style="display:inline" id="layer1" transform="translate(0,-276)"><path style="fill:#333;fill-opacity:1;stroke-width:7.56025" id="path14-3" d="m 24.009509,282 c -9.940398,0 -17.9887244,8.05156 -18.0063081,17.99194 H 6 v 13.92762 H 6.00322 C 6.0079622,316.17396 7.8372626,318 10.093326,318 H 24.011281 C 33.953433,317.994 42,309.94306 42,300.00808 c 1.6e-5,-9.94038 -8.05712,-17.99196 -18.006308,-17.99196 z m 3.657536,7.40856 c 3.022733,0 5.876664,2.31352 5.876664,5.5051 0,0.29606 0.0017,0.59228 -0.04665,0.92792 -0.08376,0.84908 -0.860047,1.45926 -1.705322,1.33952 -0.845278,-0.121 -1.41888,-0.92342 -1.262554,-1.76276 0.0144,-0.0958 0.0196,-0.24626 0.0196,-0.50484 0,-1.80996 -1.481475,-2.50884 -2.882062,-2.50884 -1.400237,0 -2.66226,1.177 -2.664018,2.50884 0.02417,1.53988 0,3.06796 0,4.60554 l 2.598953,-0.02 c 2.029228,-0.0422 2.052086,3.01242 0.02341,2.99806 l -2.621818,0.02 c -0.0062,1.23864 0.0096,1.01464 0.0032,1.63846 0,0 0.02197,1.51496 -0.02327,2.66292 -0.313703,3.37262 -3.186271,6.06782 -6.638068,6.06782 -3.659289,0 -6.673236,-2.98912 -6.673236,-6.6556 0.109868,-3.77038 3.117695,-6.73622 6.907107,-6.70214 l 2.113633,-0.018 v 2.99264 l -2.113633,0.02 h -0.01134 c -2.081979,0.0614 -3.866784,1.4752 -3.900194,3.70412 0,2.03034 1.641316,3.65752 3.67863,3.65752 2.0345,0 3.662808,-1.47968 3.662808,-3.65396 l -0.0032,-11.33454 c 0.0011,-0.21042 0.0078,-0.37758 0.03107,-0.60968 0.343451,-2.77222 2.824068,-4.88504 5.632278,-4.88504 z"/></g></svg>