<svg xmlns="http://www.w3.org/2000/svg" xmlns:osb="http://www.openswatchbook.org/uri/2009/osb" xmlns:svg="http://www.w3.org/2000/svg" id="svg11300" width="48" height="48" version="1.0" style="display:inline;enable-background:new"><defs id="defs3"><linearGradient id="selected_bg_color" osb:paint="solid"><stop style="stop-color:#5294e2;stop-opacity:1" id="stop4140" offset="0"/></linearGradient></defs><metadata id="metadata4"/><g style="display:inline" id="layer1" transform="translate(0,-252)"><path style="fill:#333;fill-opacity:1;fill-rule:evenodd;stroke-width:7.55919552" id="path14" d="m 23.997898,258 c -1.60293,3.92818 -2.568087,6.50021 -4.353844,10.30937 1.092714,1.16062 2.436285,2.50828 4.617458,4.03873 -2.342743,-0.96503 -3.945674,-1.93433 -5.14043,-2.94189 -2.283219,4.76571 -5.858984,11.55076 -13.1210622,24.59375 5.7059202,-3.29052 10.1320462,-5.32263 14.2520432,-6.09637 a 10.446679,10.44543 0 0 1 -0.267865,-2.44448 l 0.0042,-0.1828 c 0.09353,-3.65612 1.994097,-6.46621 4.24755,-6.27491 2.253456,0.1914 4.000948,3.31175 3.91166,6.96363 a 10.319125,10.317891 0 0 1 -0.229598,1.96412 c 4.077478,0.79924 8.452585,2.82285 14.08197,6.07085 -1.10972,-2.04064 -2.100389,-3.88144 -3.048542,-5.63721 -1.488131,-1.15636 -3.044291,-2.65706 -6.211883,-4.28532 2.176921,0.56542 3.741588,1.22012 4.953348,1.95134 -9.617599,-17.90644 -10.39568,-20.28716 -13.695079,-28.02877 z"/></g></svg>