<svg xmlns="http://www.w3.org/2000/svg" xmlns:svg="http://www.w3.org/2000/svg" id="svg4" width="28" height="28" version="1.1" viewBox="0 0 28 28"><path id="path1941" d="m 8.3435993,8.343653 c -0.7834117,0.7833373 -0.7834117,2.044636 0,2.828174 L 11.171799,14 8.3435993,16.828174 c -0.7834117,0.783537 -0.7834117,2.044836 0,2.828173 0.7834114,0.783537 2.0447887,0.783537 2.8281997,0 L 14,16.828174 l 2.828202,2.828173 c 0.783411,0.783537 2.044788,0.783537 2.828199,0 0.783411,-0.783337 0.783411,-2.044636 0,-2.828173 L 16.828202,14 19.656401,11.171827 c 0.783411,-0.783538 0.783411,-2.0448367 0,-2.828174 -0.783411,-0.7835372 -2.044788,-0.7835372 -2.828199,0 L 14,11.171827 11.171799,8.343653 c -0.783411,-0.7835372 -2.0447883,-0.7835372 -2.8281997,0 z"/></svg>