<svg xmlns="http://www.w3.org/2000/svg" xmlns:svg="http://www.w3.org/2000/svg" xmlns:xlink="http://www.w3.org/1999/xlink" id="svg244" width="160" height="236" version="1.1"><defs id="defs63"><linearGradient id="bg_color"><stop id="stop2" offset="0" stop-color="#f5f6f7"/></linearGradient><linearGradient id="selected_bg_color"><stop id="stop5" offset="0" stop-color="#0860F2"/></linearGradient><linearGradient id="selected_fg_color"><stop id="stop8" offset="0" stop-color="#fff"/></linearGradient><clipPath id="clipPath4470"><rect id="rect11" width="21" height="26" x="-52" y="-280.64" fill="#f11" opacity=".558" transform="scale(-1,1)"/></clipPath><clipPath id="clipPath4470-7"><rect id="rect14" width="21" height="26" x="-52" y="-280.64" fill="#f11" opacity=".558" transform="scale(-1,1)"/></clipPath><clipPath id="clipPath4470-6"><rect id="rect17" width="21" height="26" x="-52" y="-280.64" fill="#f11" opacity=".558" transform="scale(-1,1)"/></clipPath><clipPath id="clipPath4470-7-0"><rect id="rect20" width="21" height="26" x="-52" y="-280.64" fill="#f11" opacity=".558" transform="scale(-1,1)"/></clipPath><linearGradient id="linearGradient5017" x1="44" x2="44" y1="-279.64" y2="-255.64" gradientTransform="matrix(.96308 0 0 .95987 1.6244 -10.74)" gradientUnits="userSpaceOnUse" xlink:href="#selected_bg_color"/><linearGradient id="linearGradient5023" x1="43.5" x2="43.5" y1="-279.64" y2="-255.64" gradientTransform="translate(.5)" gradientUnits="userSpaceOnUse" xlink:href="#selected_bg_color"/><linearGradient id="linearGradient5043" x1="220" x2="220" y1="281" y2="286" gradientUnits="userSpaceOnUse" xlink:href="#selected_bg_color"/><linearGradient id="linearGradient5049" x1="-54.638" x2="-54.638" y1="-235" y2="-227" gradientTransform="translate(180.9 164.2)" gradientUnits="userSpaceOnUse" xlink:href="#selected_bg_color"/><linearGradient id="linearGradient5051" x1="231" x2="231" y1="-82.638" y2="-74.638" gradientTransform="translate(-164.2 180.9)" gradientUnits="userSpaceOnUse" xlink:href="#selected_bg_color"/><linearGradient id="linearGradient5053" x1="240.5" x2="240.5" y1="-154.64" y2="-129.64" gradientUnits="userSpaceOnUse" xlink:href="#selected_bg_color"/><linearGradient id="linearGradient5055" x1="66.303" x2="66.303" y1="126.56" y2="155.48" gradientUnits="userSpaceOnUse" xlink:href="#selected_bg_color"/><linearGradient id="linearGradient5059" x1="25" x2="25" y1="31.362" y2="45.362" gradientUnits="userSpaceOnUse" xlink:href="#selected_bg_color"/><linearGradient id="linearGradient5071" x1="67.353" x2="67.353" y1="128.63" y2="155.48" gradientUnits="userSpaceOnUse" xlink:href="#selected_bg_color"/><linearGradient id="linearGradient5075" x1="25.121" x2="25.121" y1="32.448" y2="45.448" gradientUnits="userSpaceOnUse" xlink:href="#selected_bg_color"/><linearGradient id="linearGradient5021" x1="124" x2="124" y1="6.362" y2="10.362" gradientTransform="matrix(1.5,0,0,1.5,-62,-4.1811)" gradientUnits="userSpaceOnUse" xlink:href="#selected_fg_color"/><linearGradient id="linearGradient5028" x1="10.5" x2="10.5" y1="1033.4" y2="1035.4" gradientUnits="userSpaceOnUse" xlink:href="#selected_fg_color"/><linearGradient id="linearGradient5030" x1="12" x2="12" y1="1027.4" y2="1035.4" gradientUnits="userSpaceOnUse" xlink:href="#selected_fg_color"/><linearGradient id="linearGradient5040" x1="124.5" x2="124.5" y1="6.362" y2="11.362" gradientUnits="userSpaceOnUse" xlink:href="#selected_fg_color"/><linearGradient id="linearGradient5042" x1="10.853" x2="10.853" y1="1033.7" y2="1035.7" gradientUnits="userSpaceOnUse" xlink:href="#selected_fg_color"/><linearGradient id="linearGradient5044" x1="12.353" x2="12.353" y1="1027.7" y2="1035.7" gradientUnits="userSpaceOnUse" xlink:href="#selected_fg_color"/><linearGradient id="linearGradient5121" x1="51.5" x2="51.5" y1="-278.64" y2="-256.64" gradientTransform="matrix(2,0,0,1,-52,0)" gradientUnits="userSpaceOnUse" xlink:href="#selected_bg_color"/><linearGradient id="linearGradient5121-2" x1="51.5" x2="51.5" y1="-278.64" y2="-256.64" gradientTransform="matrix(2,0,0,1,-52,-5.2172e-6)" gradientUnits="userSpaceOnUse" xlink:href="#selected_bg_color"/><linearGradient id="linearGradient5121-9" x1="51.5" x2="51.5" y1="-278.64" y2="-256.64" gradientTransform="matrix(2,0,0,1,-154,-5.2172e-6)" gradientUnits="userSpaceOnUse" xlink:href="#selected_bg_color"/><linearGradient id="linearGradient5121-0" x1="51.5" x2="51.5" y1="-278.64" y2="-256.64" gradientTransform="matrix(2,0,0,1,-154,-5.2344e-6)" gradientUnits="userSpaceOnUse" xlink:href="#selected_bg_color"/><clipPath id="clipPath4466-3-1"><rect id="rect43" width="21" height="26" x="-18" y="-280.64" fill="#f11" opacity=".558" transform="scale(-1,1)"/></clipPath><linearGradient id="linearGradient5171" x1="9.5" x2="9.5" y1="-279.64" y2="-255.64" gradientTransform="translate(.5)" gradientUnits="userSpaceOnUse" xlink:href="#selected_bg_color"/><linearGradient id="linearGradient6618" x1="17.5" x2="17.5" y1="-279.14" y2="-256.14" gradientTransform="matrix(2,0,0,1,-18,0)" gradientUnits="userSpaceOnUse" xlink:href="#selected_bg_color"/><clipPath id="clipPath4466-3-1-0"><rect id="rect48" width="21" height="26" x="-18" y="-280.64" fill="#f11" opacity=".558" transform="scale(-1,1)"/></clipPath><linearGradient id="linearGradient5171-1" x1="9.5" x2="9.5" y1="-279.64" y2="-255.64" gradientTransform="translate(1)" gradientUnits="userSpaceOnUse" xlink:href="#selected_bg_color"/><linearGradient id="linearGradient1759" x1="31" x2="57" y1="-267.64" y2="-267.64" gradientUnits="userSpaceOnUse" xlink:href="#selected_bg_color"/><linearGradient id="linearGradient1812" x1="30" x2="58" y1="-267.64" y2="-267.64" gradientUnits="userSpaceOnUse" xlink:href="#bg_color"/><linearGradient id="linearGradient1816" x1="30" x2="58" y1="-267.64" y2="-267.64" gradientTransform="matrix(.92857 0 0 .92308 3.1429 -20.588)" gradientUnits="userSpaceOnUse" xlink:href="#bg_color"/><linearGradient id="base_color" x1="31" x2="57" y1="-267.14" y2="-267.14" gradientTransform="matrix(1 0 0 .96 0 -11.186)" gradientUnits="userSpaceOnUse"><stop id="stop55" offset="0" stop-color="#fff" style="stop-color:#fbfcfd;stop-opacity:1"/></linearGradient><linearGradient id="background_color" x1="31" x2="57" y1="-267.64" y2="-267.64" gradientUnits="userSpaceOnUse"><stop id="stop58" offset="0" stop-color="#e5e5e5" style="stop-color:#f5f5f5;stop-opacity:1"/></linearGradient><linearGradient id="linearGradient1595" x1="263" x2="263" y1="-152.64" y2="-137.64" gradientUnits="userSpaceOnUse" xlink:href="#selected_bg_color"/><linearGradient id="linearGradient1950" x1="245" x2="270" y1="-145.14" y2="-145.14" gradientUnits="userSpaceOnUse" xlink:href="#selected_bg_color"/><linearGradient id="linearGradient1213" x1="32" x2="56" y1="-267.64" y2="-267.64" gradientUnits="userSpaceOnUse" xlink:href="#base_color"/><linearGradient id="linearGradient1215" x1="31.5" x2="56.5" y1="-267.64" y2="-267.64" gradientUnits="userSpaceOnUse" xlink:href="#base_color"/><linearGradient id="linearGradient1223" x1="32" x2="56" y1="-267.64" y2="-267.64" gradientUnits="userSpaceOnUse" xlink:href="#base_color"/><linearGradient id="linearGradient1231" x1="32" x2="55" y1="-267.64" y2="-267.64" gradientUnits="userSpaceOnUse" xlink:href="#base_color"/><linearGradient id="linearGradient1239" x1="-55" x2="-32" y1="-267.64" y2="-267.64" gradientUnits="userSpaceOnUse" xlink:href="#base_color"/><linearGradient id="linearGradient1247" x1="32" x2="55" y1="-267.64" y2="-267.64" gradientUnits="userSpaceOnUse" xlink:href="#base_color"/><linearGradient id="linearGradient1249" x1="-55" x2="-32" y1="-267.64" y2="-267.64" gradientUnits="userSpaceOnUse" xlink:href="#base_color"/></defs><rect id="rect65" width="160" height="236" y="-236" fill="#f5f6f7" stroke-width=".423" color="#000" rx="0" ry="0" transform="scale(1,-1)" style="fill:#f5f5f5;fill-opacity:1"/><g id="menu-checkbox-checked" transform="translate(21.785 18.017)"><g id="g71" transform="translate(19)"><g id="g69" transform="translate(0,-30)"><rect id="rect67" width="13" height="13" x="18.621" y="32.448" fill="url(#linearGradient5075)" stroke-width="0" color="#000" rx="3.001" ry="3.001"/></g></g><g id="g85" transform="translate(36,-1036)"><g id="g83" transform="matrix(.70711 .70711 -.70711 .70711 727.94 295.31)"><g id="g81" transform="translate(12.374,11.531)"><g id="g77" transform="translate(-3,-5)"><rect id="rect73" width="5" height="2" x="8.354" y="1033.7" fill="url(#linearGradient5042)" rx=".667" ry=".667"/><rect id="rect75" width="2" height="8" x="11.353" y="1027.7" fill="url(#linearGradient5044)" ry="0"/></g><rect id="rect79" width="3" height="1" x="5" y="-8" fill-opacity="0" transform="translate(0,1036.4)"/></g></g></g></g><g id="menu-radio-checked" transform="translate(-58.595 33.107)"><g id="g94" transform="translate(19.004)"><g id="g92" transform="matrix(.93617 0 0 .93566 -96.783 -244.76)"><g id="g90" transform="matrix(.50892 0 0 .5174 181.79 197.56)"><rect id="rect88" width="27.286" height="26.853" x="53.71" y="128.63" fill="url(#linearGradient5071)" stroke-width="0" color="#000" rx="13.643" ry="13.427"/></g></g></g><rect id="rect96" width="5" height="5" x="122" y="6.362" fill="url(#linearGradient5040)" color="#000" rx="2.5" ry="2.5"/></g><g id="checkbox-checked" transform="translate(44.904 18.107)"><g id="g105" transform="translate(19)"><g id="g103" transform="translate(0,-30)"><rect id="rect99" width="16" height="16" x="17" y="30.362" fill="none" color="#000"/><rect id="rect101" width="14" height="14" x="18" y="31.362" fill="url(#linearGradient5059)" stroke-width="0" color="#000" rx="3" ry="3"/></g></g><g id="g119" transform="translate(36,-1036)"><g id="g117" transform="matrix(.70711 .70711 -.70711 .70711 727.94 295.31)"><g id="g115" transform="translate(12.374,11.531)"><g id="g111" transform="translate(-3,-5)"><rect id="rect107" width="5" height="2" x="8" y="1033.4" fill="url(#linearGradient5028)" rx=".667" ry=".667"/><rect id="rect109" width="2" height="8" x="11" y="1027.4" fill="url(#linearGradient5030)" ry="0"/></g><rect id="rect113" width="3" height="1" x="5" y="-8" fill-opacity="0" transform="translate(0,1036.4)"/></g></g></g></g><g id="radio-checked" transform="translate(-35.096 34.107)"><g id="g130" transform="translate(19.004)"><g id="g128" transform="matrix(.93617 0 0 .93566 -96.783 -244.76)"><rect id="rect122" width="17.091" height="17.1" x="206.99" y="261.98" fill="none" color="#000"/><g id="g126" transform="matrix(.50892 0 0 .5174 181.79 197.56)"><rect id="rect124" width="29.385" height="28.919" x="51.611" y="126.56" fill="url(#linearGradient5055)" stroke-width="0" color="#000" rx="14.692" ry="14.46"/></g></g></g><rect id="rect132" width="6" height="6" x="121" y="5.362" fill="url(#linearGradient5021)" stroke-width="1.5" color="#000" rx="2.998" ry="3"/></g><g id="entry-active-bg" transform="translate(-14.132 325.53)"><rect id="rect135" width="26" height="24" x="31" y="-279.64" fill="url(#linearGradient1816)"/><rect id="rect137" width="24" height="22" x="32" y="-278.64" fill="#fff" stroke="#fefefe" stroke-opacity=".059" rx="2.5" ry="2.5" style="fill-opacity:1;fill:url(#linearGradient1215)"/><rect id="rect139" width="24.077" height="22.077" x="31.961" y="-278.68" fill="none" stroke="url(#linearGradient5017)" stroke-width="1.923" rx="4.334" ry="4.319"/></g><g id="entry-active-notebook" transform="translate(-14.132 357.53)"><rect id="rect142" width="26" height="24" x="31" y="-279.64" fill="url(#linearGradient1826)" rx="0" ry="0" style="fill:url(#base_color)"/><rect id="rect144" width="24" height="22" x="32" y="-278.64" fill="#fff" rx="4" ry="4" style="fill-opacity:1;fill:url(#linearGradient1213)"/><rect id="rect146" width="24.077" height="22.077" x="31.961" y="-278.68" fill="none" stroke="url(#linearGradient5017)" stroke-width="1.923" rx="4.334" ry="4.319"/></g><g id="combo-entry-focus" clip-path="url(#clipPath4470)" transform="translate(-11.679 432.53)"><rect id="rect149" width="26" height="24" x="31" y="-279.64" fill="#f5f6f7" rx="0" ry="0"/><rect id="rect151" width="23" height="22" x="32" y="-278.64" fill="#fff" rx="3" ry="3" style="fill-opacity:1;fill:url(#linearGradient1231)"/><rect id="rect153" width="24" height="23" x="32" y="-279.14" fill="none" stroke="url(#linearGradient5023)" stroke-width="2" rx="4.5" ry="4.5"/><rect id="rect155" width="2" height="22" x="50" y="-278.64" fill="url(#linearGradient5121)"/></g><g id="combo-entry-focus-notebook" clip-path="url(#clipPath4470-7)" transform="translate(-11.679 462.53)"><rect id="rect158" width="23" height="22" x="32" y="-278.64" fill="#fff" rx="3" ry="3" style="fill-opacity:1;fill:url(#linearGradient1247)"/><rect id="rect160" width="24" height="23" x="32" y="-279.14" fill="none" stroke="url(#linearGradient5023)" stroke-width="2" rx="4.5" ry="4.5"/><rect id="rect162" width="2" height="22" x="50" y="-278.64" fill="url(#linearGradient5121-2)"/></g><g id="combo-entry-focus-rtl" clip-path="url(#clipPath4470-6)" transform="matrix(-1 0 0 1 102.32 432.53)"><rect id="rect165" width="26" height="24" x="-57" y="-279.64" fill="#f5f6f7" rx="0" ry="0" transform="scale(-1,1)"/><rect id="rect167" width="23" height="22" x="-55" y="-278.64" fill="#fff" rx="3" ry="3" transform="scale(-1,1)" style="fill-opacity:1;fill:url(#linearGradient1239)"/><rect id="rect169" width="24" height="23" x="32" y="-279.14" fill="none" stroke="url(#linearGradient5023)" stroke-width="2" rx="4.5" ry="4.5"/><rect id="rect171" width="2" height="22" x="-52" y="-278.64" fill="url(#linearGradient5121-9)" transform="scale(-1,1)"/></g><g id="combo-entry-focus-notebook-rtl" clip-path="url(#clipPath4470-7-0)" transform="matrix(-1 0 0 1 102.32 462.53)"><rect id="rect174" width="23" height="22" x="-55" y="-278.64" fill="#fff" rx="3" ry="3" transform="scale(-1,1)" style="fill-opacity:1;fill:url(#linearGradient1249)"/><rect id="rect176" width="24" height="23" x="32" y="-279.14" fill="none" stroke="url(#linearGradient5023)" stroke-width="2" rx="4.5" ry="4.5"/><rect id="rect178" width="2" height="22" x="-52" y="-278.64" fill="url(#linearGradient5121-0)" transform="scale(-1,1)"/></g><g id="menuitem" transform="translate(-170.68 215.29)"><rect id="rect181" width="15" height="25" x="233" y="-154.64" fill="url(#linearGradient5053)" rx="0" ry="0"/></g><rect id="progressbar_v" width="30" height="8" x="51.801" y="98.256" fill="url(#linearGradient5051)" rx="4" ry="4"/><rect id="progressbar" width="30" height="8" x="111.26" y="-70.801" fill="url(#linearGradient5049)" rx="4" ry="4" transform="rotate(90)"/><g id="menubar_button" transform="translate(-152.68 213.29)"><path id="wsad" fill="url(#linearGradient1595)" d="m245-152.64h25v15h-25v-13z"/></g><g id="entry-active-toolbar" transform="translate(-14.132 389.53)"><rect id="rect188" width="26" height="24" x="31" y="-279.64" fill="url(#linearGradient1846)" rx="0" ry="0" style="fill:url(#background_color)"/><rect id="rect190" width="24" height="22" x="32" y="-278.64" fill="#fff" rx="4" ry="4" style="fill-opacity:1;fill:url(#linearGradient1223)"/><rect id="rect192" width="24.077" height="22.077" x="31.961" y="-278.68" fill="none" stroke="url(#linearGradient5017)" stroke-linecap="round" stroke-linejoin="round" stroke-width="1.923" rx="4.334" ry="4.319" style="paint-order:markers stroke fill"/></g><g id="trough-horizontal-active" transform="translate(-112.97 -188.4)"><rect id="rect195" width="34" height="15" x="203" y="276" fill="none" rx="0" ry="0"/><rect id="rect197" width="24" height="5" x="208" y="281" fill="url(#linearGradient5043)" rx="2.5" ry="2.5"/></g><g id="trough-vertical-active" transform="rotate(90 243.93 146.1)"><rect id="rect200" width="34" height="15" x="203" y="276" fill="none" rx="0" ry="0"/><rect id="rect202" width="24" height="5" x="208" y="281" fill="url(#linearGradient5043)" rx="2.5" ry="2.5"/></g><g id="entry-border-active-bg" transform="translate(-14.132 295.53)"><path id="path205" fill="url(#linearGradient1812)" d="m30-280.64v26h28v-26h-27zm2 2h24v22h-24z"/><path id="path207" fill="#f5f6f7" d="m144 66v24h26v-24zm3.5 1h19c1.385 0 2.5 1.115 2.5 2.5v17c0 1.385-1.115 2.5-2.5 2.5h-19c-1.385 0-2.5-1.115-2.5-2.5v-17c0-1.385 1.115-2.5 2.5-2.5z" transform="translate(-113,-345.64)"/><rect id="rect209" width="25" height="23" x="31.5" y="-279.14" fill="none" stroke="url(#linearGradient1759)" stroke-width="2" rx="4.5" ry="4.5"/></g><g id="combo-entry-border-focus" clip-path="url(#clipPath4466-3-1)" transform="translate(84.7 432.53)"><path id="path212" fill="#f5f6f7" d="m-43 149v24h26v-24zm3 1h18c1.108 0 2 0.892 2 2v18c0 1.108-0.892 2-2 2h-18c-1.108 0-2-0.892-2-2v-18c0-1.108 0.892-2 2-2z" transform="translate(40,-428.64)"/><rect id="rect214" width="24" height="23" x="-2" y="-279.14" fill="none" stroke="url(#linearGradient5171)" stroke-width="2" rx="4.5" ry="4.5"/><rect id="rect216" width="2" height="22" x="16" y="-278.64" fill="url(#linearGradient6618)"/></g><g id="combo-entry-border-focus-rtl" clip-path="url(#clipPath4466-3-1-0)" transform="matrix(-1 0 0 1 99.7 462.53)"><path id="path219" fill="#f5f6f7" d="m-43 149v24h26v-24zm3 1h18c1.108 0 2 0.892 2 2v18c0 1.108-0.892 2-2 2h-18c-1.108 0-2-0.892-2-2v-18c0-1.108 0.892-2 2-2z" transform="translate(40,-428.64)"/><rect id="rect221" width="24" height="23" x="-1.5" y="-279.14" fill="none" stroke="url(#linearGradient5171-1)" stroke-width="2" rx="4.5" ry="4.5"/><rect id="rect223" width="2" height="22" x="16" y="-278.64" fill="url(#linearGradient6618)"/></g><g id="pathbar_button_active" transform="translate(-187.45 307.16)"><g id="g228" fill="#fafbfc" transform="translate(57.5)"><rect id="rect226" width="25" height="15" x="245" y="-152.64" fill="none"/></g><g id="g232" transform="matrix(1 0 0 .13333 57.5 -119.29)"><rect id="rect230" width="25" height="15" x="245" y="-152.64" fill="url(#linearGradient1950)"/></g></g><g id="pathbar_button_prelight" opacity=".5" transform="translate(-187.45 332.16)"><g id="g237" fill="#fafbfc" transform="translate(57.5)"><rect id="rect235" width="25" height="15" x="245" y="-152.64" fill="none" opacity="1"/></g><g id="g241" transform="matrix(1 0 0 .13333 57.5 -119.29)"><rect id="rect239" width="25" height="15" x="245" y="-152.64" fill="url(#linearGradient1950)" opacity="1"/></g></g></svg>